<?xml version="1.0" encoding="utf-8" ?>
<svg xmlns="http://www.w3.org/2000/svg" xmlns:xlink="http://www.w3.org/1999/xlink" width="512" height="512">
	<clipPath id="cl_3">
		<rect width="512" height="512" rx="250" ry="250"/>
	</clipPath>
	<g clip-path="url(#cl_3)">
		<path transform="scale(0.5 0.5)" d="M0 0L1024 0L1024 1024L0 1024L0 0ZM508.432 206.666C501.781 208.538 496.551 219.029 493.353 224.692C479.688 248.887 468.297 274.132 462.418 301.399C460.783 308.979 460.325 316.686 458.881 324.26L516.125 324.233L565.146 324.462C563.716 290.581 548.636 257.658 532.238 228.565C528.885 222.615 525.176 214.355 520.247 209.604C517.24 206.706 513.469 206.417 509.498 206.601C509.142 206.618 508.787 206.64 508.432 206.666ZM368.344 207.078C363.194 208.244 360.942 212.055 358.279 216.275C342.043 242.008 328.342 268.989 321.51 298.79C319.58 307.21 318.57 315.741 317.05 324.227L374.047 324.439L425.028 324.433C419.081 288.431 410.348 261.115 391.607 229.604C387.55 222.783 383.484 215.881 378.884 209.409C375.258 207.592 372.393 206.93 368.344 207.078ZM649.002 207.617C647.74 208.025 646.516 208.447 645.489 209.315C639.236 214.596 628.648 234.562 624.519 242.71C611.891 267.63 600.653 296.07 599.432 324.276C618.371 324.189 637.311 324.205 656.25 324.323C672.876 324.373 689.503 324.331 706.128 324.198C703.763 289.546 689.518 256.172 671.665 226.761C668.112 220.907 664.462 213.764 659.602 208.902C655.987 207.805 652.803 207.407 649.002 207.617ZM315.081 346.524C314.787 395.366 314.744 444.209 314.95 493.051C351.864 493.352 388.864 493.782 425.773 493.343C426.213 478.047 425.857 462.659 425.903 447.35L425.993 346.534L315.081 346.524ZM458.493 346.657L458.775 493.15L564.941 493.365L565.725 492.85C566.224 488.162 565.828 483.234 565.832 478.512L565.903 450.039L565.581 346.614L458.493 346.657ZM597.052 346.688L597.068 492.675C633.563 493.27 670.065 493.402 706.563 493.072C707.197 444.218 707.373 395.36 707.092 346.503C670.428 346.73 633.701 346.088 597.052 346.688ZM216.096 408.61C226.122 419.96 237.258 430.203 247.787 441.069C258.677 452.307 269.525 463.438 280.855 474.241C284.03 477.268 287.125 480.809 290.471 483.6L290.554 408.511C266.171 408.527 240.286 407.688 216.096 408.61ZM730.615 409.762C730.103 437.496 730.498 465.299 730.508 493.041L814.75 492.969C796.857 475.591 779.124 458.05 761.553 440.348C755.84 434.614 735.785 412.502 730.615 409.762ZM198.59 423.21C197.452 496.917 198.822 570.738 198.939 644.453L198.996 758.895C198.97 777.781 198.401 796.778 198.822 815.648C220.344 815.085 241.943 815.238 263.474 815.307C269.125 815.325 286.386 816.265 290.689 815.142L290.929 814.498L290.87 581.785C290.931 559.499 290.461 537.195 290.682 514.912C286.808 510.26 282.214 506.17 277.898 501.927L256.429 480.621L215.817 439.5C211.001 434.68 204.347 426.45 198.59 423.21ZM631.262 514.747L413.101 514.919C380.281 514.935 347.419 514.589 314.603 515.045L315.018 815.583C335.122 815.412 355.226 815.388 375.33 815.51L512.75 815.449L825.935 815.464C826.832 802.547 826.395 789.4 826.419 776.447L826.514 710.55L826.112 514.986L631.262 514.747Z"/>
		<path fill="#CC2626" transform="scale(0.5 0.5)" d="M458.881 324.26C460.325 316.686 460.783 308.979 462.418 301.399C468.297 274.132 479.688 248.887 493.353 224.692C496.551 219.029 501.781 208.538 508.432 206.666C508.787 206.64 509.142 206.618 509.498 206.601C513.469 206.417 517.24 206.706 520.247 209.604C525.176 214.355 528.885 222.615 532.238 228.565C548.636 257.658 563.716 290.581 565.146 324.462L516.125 324.233L458.881 324.26Z"/>
		<path fill="#CC2626" transform="scale(0.5 0.5)" d="M317.05 324.227C318.57 315.741 319.58 307.21 321.51 298.79C328.342 268.989 342.043 242.008 358.279 216.275C360.942 212.055 363.194 208.244 368.344 207.078C372.393 206.93 375.258 207.592 378.884 209.409C383.484 215.881 387.55 222.783 391.607 229.604C410.348 261.115 419.081 288.431 425.028 324.433L374.047 324.439L317.05 324.227Z"/>
		<path fill="#CC2626" transform="scale(0.5 0.5)" d="M599.432 324.276C600.653 296.07 611.891 267.63 624.519 242.71C628.648 234.562 639.236 214.596 645.489 209.315C646.516 208.447 647.74 208.025 649.002 207.617C652.803 207.407 655.987 207.805 659.602 208.902C664.462 213.764 668.112 220.907 671.665 226.761C689.518 256.172 703.763 289.546 706.128 324.198C689.503 324.331 672.876 324.373 656.25 324.323C637.311 324.205 618.371 324.189 599.432 324.276Z"/>
		<path fill="#CC2626" transform="scale(0.5 0.5)" d="M314.95 493.051C314.744 444.209 314.787 395.366 315.081 346.524L425.993 346.534L425.903 447.35C425.857 462.659 426.213 478.047 425.773 493.343C388.864 493.782 351.864 493.352 314.95 493.051Z"/>
		<path fill="#CC2626" transform="scale(0.5 0.5)" d="M458.775 493.15L458.493 346.657L565.581 346.614L565.903 450.039L565.832 478.512C565.828 483.234 566.224 488.162 565.725 492.85L564.941 493.365L458.775 493.15Z"/>
		<path fill="#CC2626" transform="scale(0.5 0.5)" d="M597.068 492.675L597.052 346.688C633.701 346.088 670.428 346.73 707.092 346.503C707.373 395.36 707.197 444.218 706.563 493.072C670.065 493.402 633.563 493.27 597.068 492.675Z"/>
		<path fill="#CC2626" transform="scale(0.5 0.5)" d="M290.471 483.6C287.125 480.809 284.03 477.268 280.855 474.241C269.525 463.438 258.677 452.307 247.787 441.069C237.258 430.203 226.122 419.96 216.096 408.61C240.286 407.688 266.171 408.527 290.554 408.511L290.471 483.6Z"/>
		<path fill="#CC2626" transform="scale(0.5 0.5)" d="M730.508 493.041C730.498 465.299 730.103 437.496 730.615 409.762C735.785 412.502 755.84 434.614 761.553 440.348C779.124 458.05 796.857 475.591 814.75 492.969L730.508 493.041Z"/>
		<path fill="#CC2626" transform="scale(0.5 0.5)" d="M198.822 815.648C198.401 796.778 198.97 777.781 198.996 758.895L198.939 644.453C198.822 570.738 197.452 496.917 198.59 423.21C204.347 426.45 211.001 434.68 215.817 439.5L256.429 480.621L277.898 501.927C282.214 506.17 286.808 510.26 290.682 514.912C290.461 537.195 290.931 559.499 290.87 581.785L290.929 814.498L290.689 815.142C286.386 816.265 269.125 815.325 263.474 815.307C241.943 815.238 220.344 815.085 198.822 815.648Z"/>
		<path fill="#CC2626" transform="scale(0.5 0.5)" d="M314.603 515.045C347.419 514.589 380.281 514.935 413.101 514.919L631.262 514.747L826.112 514.986L826.514 710.55L826.419 776.447C826.395 789.4 826.832 802.547 825.935 815.464L512.75 815.449L375.33 815.51C355.226 815.388 335.122 815.412 315.018 815.583L314.603 515.045ZM484.43 545.632C482.407 546.356 480.956 546.987 480.001 549.068C477.239 555.088 476.409 572.347 475.392 579.728C470.835 577.007 449.567 561.185 446.285 562.309C444.293 562.992 442.272 564.778 440.713 566.17C434.026 572.141 427.855 578.948 421.48 585.27C417.203 589.511 412.43 593.462 408.428 597.944C407.005 599.539 405.538 601.385 404.763 603.398C404.019 605.331 404.39 606.438 405.261 608.236C409.367 616.706 416.757 625.625 421.702 634.03C416.433 634.801 390.134 636.586 387.692 639.411C385.294 642.186 385.988 695.254 387.689 700.563C388.038 701.654 388.454 702.046 389.481 702.49C396.228 705.408 415.487 702.646 419.766 706.166C420.583 708.939 419.973 710.94 418.576 713.438C415.525 718.896 401.709 733.338 403.241 738.713C404.409 742.813 440.172 777.491 445.433 781.604C453.755 775.741 463.149 767.894 470.285 760.597L474.814 763.819C475.7 774.352 477.319 784.886 478.831 795.346C499.895 796.672 520.876 796.205 541.963 796.542C543.232 785.78 543.786 774.631 545.74 763.994C556.605 769.506 567.009 775.534 577.531 781.668C587.623 772.048 597.25 761.952 607.115 752.103C611.851 747.376 617.574 743.021 621.506 737.623C616.412 726.575 607.237 717.587 601.231 706.955C606.848 706.056 633.463 703.141 636.939 701.415C640.152 694.835 638.546 652.481 638.6 642.625C637.006 639.8 635.889 638.718 632.751 637.845C624.53 635.559 609.805 634.645 600.931 633.923L601.316 633.267C606.088 625.216 616.27 616.049 619.7 608.759C620.376 607.321 620.814 604.528 620.533 602.983C620.027 600.206 583.194 563.704 579.126 561.927C577.702 561.305 576.648 561.55 575.253 562.126C569.233 564.614 554.309 575.834 548.037 579.958C546.954 574.877 544.839 549.768 542.246 547.972C540.434 546.718 537.992 546.235 535.838 545.977C529.243 545.188 522.1 545.646 515.447 545.613C505.144 545.563 494.725 545.248 484.43 545.632Z"/>
		<path transform="scale(0.5 0.5)" d="M475.392 579.728C476.409 572.347 477.239 555.088 480.001 549.068C480.956 546.987 482.407 546.356 484.43 545.632C494.725 545.248 505.144 545.563 515.447 545.613C522.1 545.646 529.243 545.188 535.838 545.977C537.992 546.235 540.434 546.718 542.246 547.972C544.839 549.768 546.954 574.877 548.037 579.958C554.309 575.834 569.233 564.614 575.253 562.126C576.648 561.55 577.702 561.305 579.126 561.927C583.194 563.704 620.027 600.206 620.533 602.983C620.814 604.528 620.376 607.321 619.7 608.759C616.27 616.049 606.088 625.216 601.316 633.267L600.931 633.923C609.805 634.645 624.53 635.559 632.751 637.845C635.889 638.718 637.006 639.8 638.6 642.625C638.546 652.481 640.152 694.835 636.939 701.415C633.463 703.141 606.848 706.056 601.231 706.955C607.237 717.587 616.412 726.575 621.506 737.623C617.574 743.021 611.851 747.376 607.115 752.103C597.25 761.952 587.623 772.048 577.531 781.668C567.009 775.534 556.605 769.506 545.74 763.994C543.786 774.631 543.232 785.78 541.963 796.542C520.876 796.205 499.895 796.672 478.831 795.346C477.319 784.886 475.7 774.352 474.814 763.819L470.285 760.597C463.149 767.894 453.755 775.741 445.433 781.604C440.172 777.491 404.409 742.813 403.241 738.713C401.709 733.338 415.525 718.896 418.576 713.438C419.973 710.94 420.583 708.939 419.766 706.166C415.487 702.646 396.228 705.408 389.481 702.49C388.454 702.046 388.038 701.654 387.689 700.563C385.988 695.254 385.294 642.186 387.692 639.411C390.134 636.586 416.433 634.801 421.702 634.03C416.757 625.625 409.367 616.706 405.261 608.236C404.39 606.438 404.019 605.331 404.763 603.398C405.538 601.385 407.005 599.539 408.428 597.944C412.43 593.462 417.203 589.511 421.48 585.27C427.855 578.948 434.026 572.141 440.713 566.17C442.272 564.778 444.293 562.992 446.285 562.309C449.567 561.185 470.835 577.007 475.392 579.728ZM500.286 569.661C499.751 577.998 499.31 586.34 498.963 594.687C488.182 597.204 477.454 601.166 468.979 608.553C462.45 602.459 455.849 596.442 449.179 590.503C443.625 596.033 437.868 601.372 432.329 606.905C437.685 613.341 443.225 621.262 449.683 626.559C443.429 637.8 439.106 644.252 436.391 657.152C427.736 657.991 419 659.111 410.324 659.575L410.494 681.38C419.284 681.621 427.975 682.622 436.78 682.521C437.951 693.781 443.967 703.648 449.537 713.223C444.558 720.98 437.538 726.91 432.11 734.309L446.732 749.118C453.384 742.919 460.966 737.198 468.266 731.767C478.329 738.891 487.585 742.873 499.48 745.782C499.133 755.091 499.061 764.109 499.79 773.4C505.062 773.232 518.355 774.053 522.475 772.937L522.416 745.61C534.049 743.643 544.251 740.716 554.622 734.902C560.481 740.798 566.349 747.642 573.025 752.573C579.476 747.008 586.447 740.73 591.487 733.852C585.294 728.153 579.521 722.093 573.785 715.941C580.364 705.207 584.969 694.875 586.864 682.355L612.48 681.532C612.458 673.904 612.317 666.278 612.057 658.655C603.786 658.456 595.513 658.368 587.24 658.39C585.694 646.74 581.119 636.293 575.018 626.349C580.599 619.449 586.782 613.044 592.426 606.185C586.809 600.823 581.28 595.236 575.405 590.157C568.023 595.225 561.972 601.463 555.915 608.008C545.1 599.475 536.796 598.936 524.636 594.253C524.332 585.936 523.114 577.793 522.398 569.523C515.039 569.641 507.631 569.378 500.286 569.661Z"/>
		<path fill="#CC2626" transform="scale(0.5 0.5)" d="M498.963 594.687C499.31 586.34 499.751 577.998 500.286 569.661C507.631 569.378 515.039 569.641 522.398 569.523C523.114 577.793 524.332 585.936 524.636 594.253C536.796 598.936 545.1 599.475 555.915 608.008C561.972 601.463 568.023 595.225 575.405 590.157C581.28 595.236 586.809 600.823 592.426 606.185C586.782 613.044 580.599 619.449 575.018 626.349C581.119 636.293 585.694 646.74 587.24 658.39C595.513 658.368 603.786 658.456 612.057 658.655C612.317 666.278 612.458 673.904 612.48 681.532L586.864 682.355C584.969 694.875 580.364 705.207 573.785 715.941C579.521 722.093 585.294 728.153 591.487 733.852C586.447 740.73 579.476 747.008 573.025 752.573C566.349 747.642 560.481 740.798 554.622 734.902C544.251 740.716 534.049 743.643 522.416 745.61L522.475 772.937C518.355 774.053 505.062 773.232 499.79 773.4C499.061 764.109 499.133 755.091 499.48 745.782C487.585 742.873 478.329 738.891 468.266 731.767C460.966 737.198 453.384 742.919 446.732 749.118L432.11 734.309C437.538 726.91 444.558 720.98 449.537 713.223C443.967 703.648 437.951 693.781 436.78 682.521C427.975 682.622 419.284 681.621 410.494 681.38L410.324 659.575C419 659.111 427.736 657.991 436.391 657.152C439.106 644.252 443.429 637.8 449.683 626.559C443.225 621.262 437.685 613.341 432.329 606.905C437.868 601.372 443.625 596.033 449.179 590.503C455.849 596.442 462.45 602.459 468.979 608.553C477.454 601.166 488.182 597.204 498.963 594.687ZM511.685 624.208C485.945 624.26 465.151 645.224 465.309 670.963C465.467 696.702 486.517 717.409 512.255 717.145C537.844 716.883 558.404 695.982 558.247 670.393C558.09 644.803 537.275 624.157 511.685 624.208Z"/>
		<path transform="scale(0.5 0.5)" d="M512.255 717.145C486.517 717.409 465.467 696.702 465.309 670.963C465.151 645.224 485.945 624.26 511.685 624.208C537.275 624.157 558.09 644.803 558.247 670.393C558.404 695.982 537.844 716.883 512.255 717.145Z"/>
	</g>
</svg>
